<svg width="24" height="24" viewBox="0 0 24 24" fill="none" xmlns="http://www.w3.org/2000/svg">
    <path d="M15.2308 13.4805C15.2916 15.0726 14.0533 16.4141 12.4614 16.4805" stroke="#CF202F" stroke-width="1.5" stroke-linecap="round" stroke-linejoin="round"/>
    <path fill-rule="evenodd" clip-rule="evenodd" d="M12 19.4807C8.92331 19.4807 5.99998 17.2421 5.99998 14.4807C5.96424 12.3292 7.28143 10.3862 9.29331 9.62274C9.37422 9.58974 9.46648 9.60138 9.53666 9.65343C9.60684 9.70549 9.64474 9.7904 9.63664 9.8774C9.49597 10.9534 9.90854 12.0276 10.7333 12.7327C10.9257 12.8957 11.2093 12.8897 11.3946 12.7187C12.2746 11.9074 14.4326 9.2274 10.5793 4.93474C10.5096 4.85725 10.4953 4.74468 10.5434 4.65224C10.5915 4.55979 10.6919 4.50686 10.7953 4.5194C14.414 4.96407 18 9.04674 18 12.9807C18 16.3141 16 19.4807 12 19.4807Z" stroke="#CF202F" stroke-width="1.5" stroke-linecap="round" stroke-linejoin="round"/>
    <rect x="0.75" y="0.75" width="22.5" height="22.5" rx="11.25" stroke="#CF202F" stroke-width="1.5"/>
</svg>
