<svg width="25" height="24" viewBox="0 0 25 24" fill="none" xmlns="http://www.w3.org/2000/svg">
<path d="M15.9808 13.4844C16.0416 15.0765 14.8033 16.418 13.2114 16.4844" stroke="#CF202F" stroke-width="1.5" stroke-linecap="round" stroke-linejoin="round"/>
<path fill-rule="evenodd" clip-rule="evenodd" d="M12.75 19.4827C9.67331 19.4827 6.74998 17.244 6.74998 14.4827C6.71424 12.3311 8.03143 10.3881 10.0433 9.62469C10.1242 9.59169 10.2165 9.60333 10.2867 9.65538C10.3568 9.70744 10.3947 9.79236 10.3866 9.87936C10.246 10.9553 10.6585 12.0295 11.4833 12.7347C11.6757 12.8976 11.9593 12.8916 12.1446 12.7207C13.0246 11.9094 15.1826 9.22936 11.3293 4.93669C11.2596 4.85921 11.2453 4.74664 11.2934 4.65419C11.3415 4.56174 11.4419 4.50881 11.5453 4.52136C15.164 4.96602 18.75 9.04869 18.75 12.9827C18.75 16.316 16.75 19.4827 12.75 19.4827Z" stroke="#CF202F" stroke-width="1.5" stroke-linecap="round" stroke-linejoin="round"/>
<rect x="1.5" y="0.75" width="22.5" height="22.5" rx="11.25" stroke="#CF202F" stroke-width="1.5"/>
</svg>
