<svg width="40" height="40" viewBox="0 0 40 40" fill="none" xmlns="http://www.w3.org/2000/svg">
<path d="M39.402 24.8384C36.7304 35.5527 25.8767 42.0727 15.1599 39.4014C4.44805 36.7302 -2.07331 25.8777 0.598864 15.164C3.26916 4.44847 14.1223 -2.07274 24.836 0.598494C35.5522 3.26973 42.0729 14.1234 39.4014 24.8384H39.402Z" fill="#1741B5"/>
<path d="M8.74426 14.9581L13.4614 9.9265C13.7143 9.65679 14.1424 9.65679 14.3952 9.9265L19.1124 14.9581C19.2236 15.0768 19.2855 15.2333 19.2855 15.3959V23.7206C19.2855 23.8704 19.233 24.0154 19.1372 24.1304L14.42 29.791C14.1641 30.098 13.6925 30.098 13.4367 29.791L8.71951 24.1304C8.62366 24.0153 8.57117 23.8704 8.57117 23.7206V15.3959C8.57117 15.2333 8.63306 15.0768 8.74426 14.9581Z" fill="white"/>
<path d="M31.0689 11.3867L30.7457 11.0635L31.0689 11.3867C31.6089 10.8467 31.2265 9.92347 30.4628 9.92347H22.236C21.9026 9.92347 21.5828 10.0559 21.3471 10.2917L12.6232 19.0155C12.1323 19.5065 12.1323 20.3025 12.6232 20.7934L21.3471 29.5173C21.5828 29.753 21.9026 29.8855 22.236 29.8855H30.4628C31.2265 29.8855 31.6089 28.9622 31.0689 28.4223L22.7936 20.1469C22.6597 20.013 22.6597 19.7959 22.7936 19.662L31.0689 11.3867Z" fill="url(#paint0_linear)" stroke="#1741B5" stroke-width="0.914286"/>
<defs>
<linearGradient id="paint0_linear" x1="30.8636" y1="11.333" x2="30.3614" y2="25.4833" gradientUnits="userSpaceOnUse">
<stop stop-color="#B9FFFB"/>
<stop offset="1" stop-color="#00A1E6"/>
</linearGradient>
</defs>
</svg>
