<svg width="32" height="32" viewBox="0 0 32 32" fill="none" xmlns="http://www.w3.org/2000/svg">
<path d="M31.5216 19.8707C29.3843 28.4422 20.7014 33.6581 12.1279 31.5211C3.55844 29.3841 -1.65865 20.7022 0.479091 12.1312C2.61533 3.55878 11.2978 -1.65819 19.8688 0.478795C28.4417 2.61578 33.6583 11.2987 31.5211 19.8707H31.5216Z" fill="#1741B5"/>
<path d="M7.03003 11.9296L10.6758 8.04082C10.9286 7.77111 11.3567 7.77111 11.6096 8.04082L15.2553 11.9296C15.3665 12.0482 15.4284 12.2047 15.4284 12.3673V18.9302C15.4284 19.0799 15.3759 19.2249 15.2801 19.3399L11.6343 23.7148C11.3785 24.0218 10.9069 24.0218 10.651 23.7148L7.00527 19.3399C6.90942 19.2249 6.85693 19.0799 6.85693 18.9302V12.3673C6.85693 12.2047 6.91882 12.0482 7.03003 11.9296Z" fill="white"/>
<path d="M24.3702 7.84748H17.7888C17.4978 7.84748 17.2187 7.96307 17.013 8.16883L10.0339 15.1479C9.60542 15.5764 9.60542 16.2711 10.0339 16.6995L17.013 23.6786C17.2187 23.8844 17.4978 24 17.7888 24H24.3702C25.0626 24 25.4093 23.1629 24.9197 22.6733L18.2995 16.053C18.2281 15.9816 18.2281 15.8658 18.2995 15.7944L24.9197 9.17415C25.4093 8.68458 25.0626 7.84748 24.3702 7.84748Z" fill="url(#paint0_linear)" stroke="#1741B5" stroke-width="0.914286"/>
<defs>
<linearGradient id="paint0_linear" x1="24.6908" y1="9.06654" x2="24.2891" y2="20.3868" gradientUnits="userSpaceOnUse">
<stop stop-color="#B9FFFB"/>
<stop offset="1" stop-color="#00A1E6"/>
</linearGradient>
</defs>
</svg>
