<svg width="32" height="32" viewBox="0 0 32 32" fill="none" xmlns="http://www.w3.org/2000/svg">
<circle cx="16" cy="16" r="16" fill="#F3F2F1"/>
<path d="M21.9261 22.6666V21.1851C21.9261 20.3993 21.6139 19.6457 21.0582 19.09C20.5026 18.5343 19.7489 18.2222 18.9631 18.2222H13.0372C12.2514 18.2222 11.4977 18.5343 10.9421 19.09C10.3864 19.6457 10.0742 20.3993 10.0742 21.1851V22.6666" stroke="#5B616E" stroke-width="1.2" stroke-linecap="round" stroke-linejoin="round"/>
<path d="M16.0001 15.2592C17.6365 15.2592 18.963 13.9326 18.963 12.2962C18.963 10.6598 17.6365 9.33325 16.0001 9.33325C14.3637 9.33325 13.0371 10.6598 13.0371 12.2962C13.0371 13.9326 14.3637 15.2592 16.0001 15.2592Z" stroke="#5B616E" stroke-width="1.2" stroke-linecap="round" stroke-linejoin="round"/>
</svg>
